<svg version="1.0" xmlns="http://www.w3.org/2000/svg"
 width="387.000000pt" height="274.000000pt" viewBox="0 0 387.000000 274.000000"
 preserveAspectRatio="xMidYMid meet">

<g transform="translate(0.000000,274.000000) scale(0.100000,-0.100000)"
fill="#000000" stroke="none">
<path d="M0 1370 l0 -1370 1935 0 1935 0 0 1370 0 1370 -1935 0 -1935 0 0
-1370z m1831 1103 c7 -16 27 -44 44 -65 16 -20 39 -53 50 -74 11 -21 30 -49
43 -63 17 -19 20 -27 10 -34 -10 -7 -10 -10 1 -14 32 -13 62 -57 56 -81 -4
-16 -2 -21 5 -17 6 4 17 1 25 -5 16 -13 21 -35 6 -26 -15 10 -71 -6 -71 -20 0
-23 -21 -27 -27 -5 -6 22 -12 25 -28 13 -12 -8 -13 -47 -2 -58 4 -4 7 0 7 8 0
11 7 14 25 10 14 -2 25 0 25 6 0 5 9 12 20 15 11 3 20 1 20 -4 0 -5 5 -9 11
-9 5 0 7 5 4 10 -3 6 -2 10 4 10 5 0 12 -6 14 -12 3 -8 6 -5 6 5 2 31 20 10
109 -127 47 -72 132 -202 189 -290 57 -87 102 -165 99 -172 -3 -9 2 -14 13
-14 10 0 22 -7 25 -15 5 -15 192 -303 237 -367 10 -15 19 -32 19 -38 0 -5 4
-10 8 -10 4 0 16 -15 27 -32 10 -18 63 -100 117 -181 54 -81 98 -149 98 -151
0 -2 -77 -4 -172 -5 -127 -1 -174 2 -180 12 -6 9 -10 9 -16 0 -5 -8 -55 -11
-177 -10 l-170 2 -80 121 c-44 66 -147 223 -230 348 l-150 227 -14 -30 c-14
-29 -10 -38 83 -261 53 -127 94 -235 91 -240 -4 -6 -90 -10 -210 -10 -161 0
-204 3 -208 13 -3 8 37 115 89 237 76 180 93 229 86 249 -5 14 -12 26 -18 28
-5 1 -31 -32 -59 -75 -27 -43 -129 -198 -225 -345 l-175 -266 -352 -1 c-265 0
-353 3 -353 12 0 6 30 57 67 112 37 56 123 187 191 291 69 105 166 253 217
330 88 134 131 200 413 630 69 104 154 234 188 287 50 77 67 96 81 92 14 -5
15 -4 4 4 -11 8 -10 15 5 40 16 29 30 38 60 41 6 0 17 -11 25 -26z"/>
<path d="M1776 2426 c10 -8 21 -12 24 -10 5 6 -21 24 -34 24 -6 0 -1 -6 10
-14z"/>
<path d="M1850 2280 c0 -5 5 -10 10 -10 6 0 10 5 10 10 0 6 -4 10 -10 10 -5 0
-10 -4 -10 -10z"/>
<path d="M1910 2250 c0 -5 5 -10 10 -10 6 0 10 5 10 10 0 6 -4 10 -10 10 -5 0
-10 -4 -10 -10z"/>
<path d="M1685 2221 c-3 -5 -1 -12 5 -16 5 -3 10 1 10 9 0 18 -6 21 -15 7z"/>
<path d="M1858 2170 c-14 -16 -14 -19 -2 -24 8 -3 14 1 14 8 0 8 5 16 12 18 8
3 8 7 2 11 -6 3 -18 -2 -26 -13z"/>
<path d="M1990 2180 c0 -5 5 -10 10 -10 6 0 10 5 10 10 0 6 -4 10 -10 10 -5 0
-10 -4 -10 -10z"/>
<path d="M1900 2168 c0 -9 -6 -18 -12 -21 -7 -2 -10 -8 -6 -12 4 -4 15 0 24 9
12 13 14 20 5 29 -8 8 -11 7 -11 -5z"/>
<path d="M1965 2130 c-3 -5 3 -10 14 -10 12 0 21 -5 21 -11 0 -5 4 -8 10 -4 5
3 7 12 3 20 -6 17 -39 20 -48 5z"/>
<path d="M1908 2093 c7 -3 16 -2 19 1 4 3 -2 6 -13 5 -11 0 -14 -3 -6 -6z"/>
<path d="M2170 1890 c0 -5 5 -10 10 -10 6 0 10 5 10 10 0 6 -4 10 -10 10 -5 0
-10 -4 -10 -10z"/>
<path d="M2130 1820 c0 -5 7 -10 15 -10 8 0 15 5 15 10 0 6 -7 10 -15 10 -8 0
-15 -4 -15 -10z"/>
<path d="M2310 1546 c0 -2 9 -6 20 -9 11 -3 18 -1 14 4 -5 9 -34 13 -34 5z"/>
<path d="M1784 1416 c-4 -9 -2 -27 4 -39 10 -22 10 -21 17 6 9 33 -10 62 -21
33z"/>
<path d="M2440 1270 c0 -5 5 -10 10 -10 6 0 10 5 10 10 0 6 -4 10 -10 10 -5 0
-10 -4 -10 -10z"/>
<path d="M1768 1177 c-14 -34 -49 -118 -77 -185 -28 -68 -51 -126 -51 -128 0
-2 70 -4 156 -4 l155 0 -7 23 c-7 22 -144 350 -148 354 -2 2 -14 -25 -28 -60z"/>
<path d="M2410 1230 c0 -5 5 -10 10 -10 6 0 10 5 10 10 0 6 -4 10 -10 10 -5 0
-10 -4 -10 -10z"/>
<path d="M2550 1220 c-9 -6 -10 -10 -3 -10 6 0 15 5 18 10 8 12 4 12 -15 0z"/>
<path d="M2525 1150 c-3 -5 -1 -10 4 -10 6 0 11 5 11 10 0 6 -2 10 -4 10 -3 0
-8 -4 -11 -10z"/>
<path d="M2100 1140 c0 -5 6 -10 14 -10 8 0 18 5 21 10 3 6 -3 10 -14 10 -12
0 -21 -4 -21 -10z"/>
<path d="M2568 853 c7 -3 16 -2 19 1 4 3 -2 6 -13 5 -11 0 -14 -3 -6 -6z"/>
<path d="M2450 765 c-10 -12 -10 -15 3 -15 19 0 31 16 18 24 -5 3 -14 -1 -21
-9z"/>
<path d="M1100 730 c0 -5 5 -10 10 -10 6 0 10 5 10 10 0 6 -4 10 -10 10 -5 0
-10 -4 -10 -10z"/>
<path d="M2390 720 c0 -5 5 -10 11 -10 5 0 7 5 4 10 -3 6 -8 10 -11 10 -2 0
-4 -4 -4 -10z"/>
<path d="M2850 721 c0 -6 5 -13 10 -16 6 -3 10 1 10 9 0 9 -4 16 -10 16 -5 0
-10 -4 -10 -9z"/>
</g>
</svg>
